<svg width="24" height="24" viewBox="0 0 24 24" fill="none" xmlns="http://www.w3.org/2000/svg">
<path d="M12.5123 17.4065C12.7307 17.4065 12.9266 17.3237 13.1074 17.1504L18.0795 12.1858C18.2302 12.0352 18.3206 11.8468 18.3432 11.6434V16.6155C18.3432 17.0675 18.6897 17.4065 19.1568 17.4065C19.6164 17.4065 19.9629 17.0675 19.9629 16.6155V6.54327C19.9629 6.07619 19.6164 5.73718 19.1568 5.73718C18.6897 5.73718 18.3432 6.07619 18.3432 6.54327V11.5003C18.3206 11.2969 18.2302 11.1086 18.0795 10.9579L13.1074 5.99332C12.9266 5.82005 12.7307 5.73718 12.5123 5.73718C12.0527 5.73718 11.7137 6.07619 11.7137 6.5282C11.7137 6.76174 11.8041 6.96514 11.9548 7.11581L13.6423 8.81838L15.8571 10.8072L14.2374 10.7469H4.87333C4.37612 10.7469 4.03711 11.086 4.03711 11.5756C4.03711 12.0578 4.37612 12.3968 4.87333 12.3968H14.2374L15.8647 12.3365L13.6423 14.3254L11.9548 16.0279C11.8041 16.1786 11.7137 16.382 11.7137 16.6155C11.7137 17.0675 12.0527 17.4065 12.5123 17.4065Z" fill="#00C2CE"/>
</svg>
