<svg width="29" height="28" viewBox="0 0 29 28" fill="none" xmlns="http://www.w3.org/2000/svg">
<path d="M15.0977 20.3076C15.3525 20.3076 15.5811 20.2109 15.792 20.0088L21.5928 14.2168C21.7686 14.041 21.874 13.8213 21.9004 13.584V19.3848C21.9004 19.9121 22.3047 20.3076 22.8496 20.3076C23.3857 20.3076 23.79 19.9121 23.79 19.3848V7.63379C23.79 7.08887 23.3857 6.69336 22.8496 6.69336C22.3047 6.69336 21.9004 7.08887 21.9004 7.63379V13.417C21.874 13.1797 21.7686 12.96 21.5928 12.7842L15.792 6.99219C15.5811 6.79004 15.3525 6.69336 15.0977 6.69336C14.5615 6.69336 14.166 7.08887 14.166 7.61621C14.166 7.88867 14.2715 8.12598 14.4473 8.30176L16.416 10.2881L19 12.6084L17.1104 12.5381H6.18555C5.60547 12.5381 5.20996 12.9336 5.20996 13.5049C5.20996 14.0674 5.60547 14.4629 6.18555 14.4629H17.1104L19.0088 14.3926L16.416 16.7129L14.4473 18.6992C14.2715 18.875 14.166 19.1123 14.166 19.3848C14.166 19.9121 14.5615 20.3076 15.0977 20.3076Z" fill="#00ACE6"/>
</svg>
