<svg width="24" height="24" viewBox="0 0 24 24" fill="none" xmlns="http://www.w3.org/2000/svg">
<path d="M5.57401 13.7678L11.307 7.90677C11.5029 7.69584 11.7364 7.5979 12.0001 7.5979C12.2637 7.5979 12.5048 7.70337 12.7007 7.90677L18.4261 13.7678C18.5919 13.9336 18.6823 14.1445 18.6823 14.3931C18.6823 14.8978 18.2905 15.2896 17.7933 15.2896C17.5522 15.2896 17.3187 15.1992 17.1454 15.0184L12.0076 9.73741L6.8547 15.0184C6.68896 15.1917 6.45543 15.2896 6.20682 15.2896C5.70961 15.2896 5.31787 14.8978 5.31787 14.3931C5.31787 14.152 5.40827 13.9336 5.57401 13.7678Z" fill="#005F65"/>
</svg>
