<svg width="24" height="24" viewBox="0 0 24 24" fill="none" xmlns="http://www.w3.org/2000/svg">
<path d="M12.0001 15.8472C12.2637 15.8396 12.5048 15.7417 12.7007 15.5308L18.4261 9.66971C18.5919 9.50398 18.6823 9.29304 18.6823 9.04443C18.6823 8.54722 18.2905 8.14795 17.7933 8.14795C17.5522 8.14795 17.3187 8.24588 17.1454 8.41915L12.0076 13.7001L6.8547 8.41915C6.68143 8.25342 6.45543 8.14795 6.20682 8.14795C5.70961 8.14795 5.31787 8.54722 5.31787 9.04443C5.31787 9.29304 5.40827 9.50398 5.57401 9.66971L11.307 15.5308C11.5104 15.7417 11.7364 15.8472 12.0001 15.8472Z" fill="#00C2CE"/>
</svg>
