<svg width="89" height="24" viewBox="0 0 89 24" fill="none" xmlns="http://www.w3.org/2000/svg">
<rect x="65.9219" y="7.06299" width="2.43038" height="9.41772" fill="#006B8F"/>
<rect x="72.9102" y="7.06299" width="2.43038" height="6.98734" transform="rotate(90 72.9102 7.06299)" fill="#006B8F"/>
<rect x="51.6484" y="7.06299" width="2.43038" height="9.41772" fill="#006B8F"/>
<rect x="51.6484" y="7.06299" width="2.43038" height="9.41772" fill="#006B8F"/>
<rect x="51.6484" y="16.4805" width="2.43038" height="9.41772" transform="rotate(-90 51.6484 16.4805)" fill="#006B8F"/>
<rect x="58.6367" y="7.06299" width="2.43038" height="9.41772" fill="#006B8F"/>
<rect x="51.6484" y="9.49316" width="2.43038" height="9.41772" transform="rotate(-90 51.6484 9.49316)" fill="#006B8F"/>
<rect x="30.0781" y="7.06299" width="2.43038" height="9.41772" fill="#006B8F"/>
<rect x="30.0781" y="7.06299" width="2.43038" height="9.41772" fill="#006B8F"/>
<rect x="30.0781" y="16.4805" width="2.43038" height="9.41772" transform="rotate(-90 30.0781 16.4805)" fill="#006B8F"/>
<rect x="37.0664" y="7.06299" width="2.43038" height="9.41772" fill="#006B8F"/>
<rect x="30.0781" y="9.49316" width="2.43038" height="9.41772" transform="rotate(-90 30.0781 9.49316)" fill="#006B8F"/>
<rect x="30.0781" y="7.06299" width="2.43038" height="16.4051" fill="#006B8F"/>
<rect x="76.8633" y="10.5566" width="2.43038" height="5.92405" fill="#006B8F"/>
<rect x="76.8633" y="16.4805" width="2.43038" height="11.8481" transform="rotate(-90 76.8633 16.4805)" fill="#006B8F"/>
<rect x="83.8516" y="7.06299" width="2.43038" height="9.41772" fill="#006B8F"/>
<rect x="78.0781" y="9.49316" width="2.43038" height="6.37975" transform="rotate(-90 78.0781 9.49316)" fill="#006B8F"/>
<rect x="76.8633" y="12.9868" width="2.43038" height="7.59494" transform="rotate(-90 76.8633 12.9868)" fill="#006B8F"/>
<rect x="44.3555" y="0.0761719" width="2.43038" height="16.4051" fill="#006B8F"/>
<path d="M19.3672 5.09629C19.3652 4.76956 18.998 4.50432 18.6647 4.69962L12.0002 8.60421L12.0002 12L19.2282 4.77198C19.3128 4.85652 19.3664 4.97195 19.3672 5.09629Z" fill="#006B8F"/>
<path d="M12.0002 12L15.396 12L19.3023 5.33269C19.4211 5.12704 19.3652 4.90895 19.2282 4.77198L12.0002 12Z" fill="#B1EAFD"/>
<path d="M4.63281 18.9037C4.63478 19.2304 5.00196 19.4957 5.3353 19.3004L11.9998 15.3958L11.9998 12L4.77175 19.228C4.68721 19.1435 4.63357 19.028 4.63281 18.9037Z" fill="#006B8F"/>
<path d="M11.9998 12H8.60397L4.69771 18.6673C4.57892 18.873 4.63478 19.091 4.77176 19.228L11.9998 12Z" fill="#B1EAFD"/>
<path d="M5.09629 4.63281C4.76956 4.63478 4.50432 5.00196 4.69962 5.3353L8.60421 11.9998L12 11.9998L4.77198 4.77175C4.85652 4.68721 4.97195 4.63357 5.09629 4.63281Z" fill="#006B8F"/>
<path d="M12 11.9998L12 8.60397L5.33269 4.69771C5.12704 4.57892 4.90895 4.63478 4.77198 4.77176L12 11.9998Z" fill="#B1EAFD"/>
<path d="M18.9037 19.3667C19.2304 19.3647 19.4957 18.9976 19.3004 18.6642L15.3958 11.9997L12 11.9998L19.228 19.2278C19.1435 19.3123 19.028 19.3659 18.9037 19.3667Z" fill="#006B8F"/>
<path d="M12 11.9997L12 15.3955L18.6673 19.3018C18.873 19.4206 19.091 19.3647 19.228 19.2278L12 11.9997Z" fill="#B1EAFD"/>
<path d="M11.9989 12V0C11.7974 -4.7983e-08 11.596 0.12295 11.5441 0.36885L9.59766 9.59881L11.9989 12Z" fill="#006B8F"/>
<path d="M12.4547 0.36885C12.4029 0.12295 12.2014 0 12 0V12L14.4012 9.59881L12.4547 0.36885Z" fill="#B1EAFD"/>
<path d="M12 24C12.2014 24 12.4029 23.8771 12.4547 23.6312L14.4012 14.4012L12 12V24Z" fill="#006B8F"/>
<path d="M11.9989 12L9.59766 14.4012L11.5441 23.6312C11.5442 23.6315 11.5443 23.6319 11.5443 23.6322C11.5966 23.8774 11.7977 24 11.9989 24L11.9989 12Z" fill="#B1EAFD"/>
<path d="M12 11.9997L-1.0496e-07 11.9997C-1.44137e-07 12.2011 0.12295 12.4026 0.36885 12.4544L9.59881 14.4009L12 11.9997Z" fill="#006B8F"/>
<path d="M0.36885 11.5453C0.12295 11.5971 -8.80546e-09 11.7986 0 12L12 12L9.59881 9.5988L0.36885 11.5453Z" fill="#B1EAFD"/>
<path d="M24 12C24 11.7986 23.8771 11.5971 23.6312 11.5453L14.4012 9.5988L12 12L24 12Z" fill="#006B8F"/>
<path d="M12 11.9997L14.4012 14.4009L23.6312 12.4544C23.6315 12.4543 23.6319 12.4543 23.6322 12.4542C23.8774 12.402 24 12.2008 24 11.9997L12 11.9997Z" fill="#B1EAFD"/>
</svg>
