<svg width="29" height="28" viewBox="0 0 29 28" fill="none" xmlns="http://www.w3.org/2000/svg">
<path d="M6.94141 15.6758V21.2305C6.94141 22.7598 7.97852 23.7529 9.55176 23.7529H19.4395C21.0127 23.7529 22.0498 22.7598 22.0498 21.2305V6.06934C22.0498 4.54883 21.0127 3.54688 19.4395 3.54688H9.55176C7.97852 3.54688 6.94141 4.54883 6.94141 6.06934V11.6328H8.66406V6.35059C8.66406 5.66504 9.06836 5.26953 9.78906 5.26953H19.2021C19.9229 5.26953 20.3271 5.66504 20.3271 6.35059V20.9492C20.3271 21.6348 19.9229 22.0303 19.2021 22.0303H9.78906C9.06836 22.0303 8.66406 21.6348 8.66406 20.9492V15.6758H6.94141ZM5.12207 14.3838H10.9053L12.6016 14.2959L10.8613 15.8252L10.3867 16.3174C10.2549 16.458 10.167 16.6514 10.167 16.8623C10.167 17.2754 10.4658 17.5654 10.8701 17.5654C11.0723 17.5654 11.2568 17.4863 11.3975 17.3457L14.5088 14.252C14.6934 14.0586 14.7988 13.8477 14.7988 13.6455C14.7988 13.4434 14.6934 13.2236 14.5088 13.0391L11.3975 9.94531C11.2568 9.80469 11.0723 9.72559 10.8701 9.72559C10.4658 9.72559 10.167 10.0156 10.167 10.4287C10.167 10.6396 10.2549 10.833 10.3867 10.9736L10.8613 11.4658L12.6016 12.9951L10.9053 12.9072H5.12207C4.67383 12.9072 4.38379 13.25 4.38379 13.6455C4.38379 14.041 4.67383 14.3838 5.12207 14.3838Z" fill="#00ACE6"/>
</svg>
