<svg width="130" height="42" viewBox="0 0 130 42" fill="none" xmlns="http://www.w3.org/2000/svg">
<path fill-rule="evenodd" clip-rule="evenodd" d="M74.6723 5.34248C74.6986 6.83741 74.4386 9.04318 73.7729 12.128C73.1111 15.1948 71.9211 17.5243 70.4245 19.2774C70.4574 19.3983 70.4897 19.5048 70.5206 19.5967C70.5659 19.7316 70.6029 19.8185 70.627 19.8676C71.3275 20.6843 72.174 21.1724 73.0641 21.1048C73.9621 21.0365 75.1716 20.3831 76.5426 18.2949C76.7951 17.5898 77.141 16.9481 77.4262 16.4822C77.5756 16.2381 77.7119 16.0364 77.8155 15.8923C77.8668 15.8209 77.9128 15.7598 77.9504 15.7129C77.9681 15.6908 77.9901 15.6641 78.0132 15.6389C78.0231 15.628 78.0448 15.6046 78.0732 15.5791C78.0859 15.5677 78.1162 15.541 78.1584 15.513C78.1795 15.499 78.218 15.4749 78.2697 15.4523C78.3123 15.4338 78.4205 15.3907 78.5662 15.3927L78.9942 15.3989C79.0802 15.1702 79.1745 14.9478 79.2752 14.7339C79.4956 14.0635 80.0624 13.4647 80.6768 13.0178C81.3289 12.5435 82.1449 12.1587 82.9709 11.9938C83.7892 11.8304 84.7093 11.8673 85.4687 12.3698C86.2529 12.8888 86.7075 13.7972 86.7914 15.0352L86.7925 15.0515L86.7928 15.0678C86.8396 17.1944 85.8275 19.6656 84.0551 21.336C84.2199 21.3349 84.391 21.3295 84.5687 21.3198C87.2732 21.1713 89.2474 19.577 90.5436 17.7921C90.475 17.7221 90.4125 17.6453 90.3569 17.5616C90.1309 17.2216 90.0644 16.8385 90.074 16.4892C90.0925 15.8144 90.3977 15.1003 90.7341 14.5279C91.0763 13.9457 91.5171 13.3987 91.9227 13.0626C92.0996 12.916 92.3843 12.7105 92.7177 12.6725C92.917 12.6498 93.1796 12.6841 93.4037 12.8768C93.6125 13.0564 93.6886 13.2895 93.7165 13.4566C93.761 13.7228 93.7342 14.033 93.6824 14.3289C93.6279 14.6402 93.5345 14.9962 93.4053 15.3784C93.2489 15.8411 93.036 16.3549 92.765 16.8895C95.3704 16.601 95.5561 16.5628 96.0893 16.4533C96.3815 16.3932 96.7782 16.3117 97.7349 16.1557C98.2784 16.0671 98.7631 16.2129 99.1333 16.5638C99.4655 16.8787 99.6525 17.3089 99.7716 17.7045C99.9649 18.3463 100.05 19.1647 100.123 19.8759C100.139 20.0299 100.155 20.1788 100.17 20.3198C100.218 20.7416 100.269 21.1048 100.341 21.3957C100.4 21.6331 100.459 21.7613 100.497 21.8229C100.623 21.7843 100.878 21.6486 101.291 21.2739C102.743 19.9569 103.627 19.2161 104.147 18.8261C104.392 18.6421 104.604 18.4991 104.774 18.4244C104.797 18.4141 104.828 18.4016 104.863 18.3896C104.842 17.3002 105.003 16.2656 105.293 15.4019C105.638 14.3774 106.231 13.4097 107.101 13.0582C107.676 12.8258 108.141 12.6495 108.751 12.5777C109.342 12.5081 110.034 12.5401 111.08 12.6448C111.706 12.7076 112.266 12.9047 112.722 13.265C113.18 13.6267 113.486 14.1157 113.664 14.6818C113.848 15.2662 113.901 15.9468 113.847 16.7028C113.925 16.7982 113.963 16.8889 113.974 16.9164C114.02 17.0322 114.034 17.144 114.04 17.2094C114.047 17.2798 114.049 17.3544 114.048 17.4298C114.088 18.3823 113.937 19.2062 113.65 19.9117C113.668 19.9674 113.686 20.007 113.702 20.0332C113.706 20.0401 113.709 20.0453 113.712 20.049C113.819 20.0848 113.914 20.1184 114.001 20.1492C114.467 20.3136 114.717 20.4019 115.351 20.3553C116.198 20.293 117.638 19.9795 120.609 19.1256C125.397 17.7494 128.593 17.6486 129.683 17.8007L129.485 19.2168C128.672 19.1032 125.693 19.1521 121.004 20.4998C118.052 21.3483 116.473 21.7064 115.456 21.7813C114.513 21.8506 114.01 21.6714 113.501 21.4898C113.414 21.459 113.327 21.428 113.238 21.3982C113.099 21.3518 112.978 21.2879 112.873 21.2115C112.351 21.8422 111.72 22.2921 111.115 22.6045C110.223 23.0652 109.338 23.2527 108.82 23.274C108.451 23.2892 108.045 23.2224 107.644 23.0762C107.546 23.077 107.449 23.0767 107.354 23.0753C106.128 23.0577 105.385 22.2567 104.981 21.448C104.796 21.0779 104.668 20.6816 104.581 20.3025C104.08 20.7091 103.335 21.3507 102.251 22.3331C101.773 22.7667 101.313 23.0825 100.861 23.2058C100.623 23.2709 100.369 23.2874 100.115 23.2215C99.8581 23.1549 99.6508 23.0166 99.4907 22.8486C99.1937 22.5369 99.0446 22.1081 98.9533 21.7396C98.8571 21.3513 98.7979 20.9086 98.7496 20.4799C98.7298 20.304 98.7116 20.1308 98.6938 19.9614C98.6198 19.2558 98.5526 18.6152 98.4025 18.1168C98.311 17.813 98.2154 17.6638 98.1497 17.6015L98.1485 17.6004C98.1211 17.5744 98.0915 17.5463 97.965 17.567C97.0673 17.7133 96.6757 17.7932 96.3781 17.854C95.803 17.9715 95.5785 18.0173 92.7338 18.3315C92.4357 18.3644 92.1564 18.3726 91.8979 18.3523C90.4566 20.4528 88.076 22.5593 84.6471 22.7475C83.7396 22.7973 82.9392 22.7465 82.2385 22.6041C81.3548 23.0359 80.3627 23.2835 79.2873 23.268L79.2224 23.2671L79.1588 23.2545C77.6753 22.9611 76.7578 22.249 76.3813 21.2284C76.3419 21.1218 76.3094 21.0141 76.283 20.9055C75.2572 21.932 74.2124 22.4515 73.1724 22.5305C71.6183 22.6486 70.348 21.7634 69.487 20.7339L69.452 20.692L69.4237 20.6454C69.3853 20.5819 69.3478 20.5094 69.3114 20.4292C66.5007 22.9972 63.0209 23.8812 60.1917 24.11C58.624 24.2367 57.2359 24.1644 56.2352 24.0574C55.7343 24.0038 55.3278 23.9412 55.0415 23.8896C54.8986 23.8639 54.7835 23.8405 54.6999 23.8219C54.6589 23.8127 54.6211 23.8037 54.5895 23.7953C54.5749 23.7914 54.5536 23.7856 54.5308 23.7782C54.5207 23.775 54.499 23.7678 54.473 23.7571C54.4605 23.752 54.4363 23.7417 54.4071 23.7262L54.4057 23.7255C54.3887 23.7165 54.308 23.6739 54.2289 23.5925L52.8554 22.1789L54.8158 22.3832C58.9858 22.8179 61.3685 19.7262 61.8296 17.2227C61.943 16.6067 61.929 16.0706 61.8215 15.6675C61.7148 15.2667 61.5324 15.0462 61.3378 14.9402C61.1457 14.8355 60.8095 14.7705 60.2433 14.9545C59.6714 15.1404 58.9212 15.5655 57.9885 16.3521C54.6727 19.1484 52.5969 21.5743 51.247 23.5633C51.4073 24.07 51.5748 24.5733 51.7494 25.0676C52.7294 27.841 53.7096 31.3989 53.7611 34.3035C53.7867 35.7492 53.5853 37.133 52.9476 38.1802C52.2753 39.2841 51.1692 39.9293 49.6302 39.9422C48.0871 39.9551 47.0179 39.3183 46.398 38.2586C45.816 37.2636 45.6813 35.9827 45.7339 34.7568C45.8396 32.2899 46.7277 29.6082 47.1479 28.6148C47.2268 28.4285 47.3116 28.2066 47.4091 27.9514C47.8054 26.9148 48.4118 25.3282 49.6813 23.341C48.9446 20.9115 48.3777 18.4852 47.9852 16.6583C47.8433 15.9976 47.7239 15.414 47.6276 14.9368C47.1288 15.483 46.4627 16.1978 45.7059 16.9815C44.0917 18.6531 42.0383 20.6654 40.3093 22.0143C37.3343 24.3355 33.6008 23.7257 32.0943 23.1434L21.3719 19.1779L21.8679 17.8368L32.6007 21.8062L32.606 21.8082C33.8681 22.2977 37.0092 22.7756 39.4298 20.887C41.0753 19.6032 43.0709 17.6518 44.6774 15.9883C45.4771 15.1601 46.1739 14.4102 46.6738 13.8607C46.9238 13.5859 47.1237 13.3623 47.2619 13.2049C47.3312 13.1259 47.3834 13.0655 47.418 13.0246C47.4308 13.0094 47.4398 12.9986 47.4457 12.9914C47.5052 12.9075 47.613 12.7929 47.7912 12.7297C48.093 12.6226 48.3412 12.7447 48.453 12.8261C48.5547 12.9003 48.6112 12.9831 48.6308 13.0127C48.6563 13.0514 48.6732 13.0851 48.6824 13.1046C48.7124 13.168 48.7297 13.2287 48.7351 13.2478L48.7356 13.2493C48.7515 13.3053 48.768 13.3763 48.7836 13.447C48.8162 13.5951 48.8604 13.8139 48.9148 14.0844C48.9241 14.1307 48.9337 14.1788 48.9437 14.2285C49.0513 14.7646 49.1977 15.4946 49.3832 16.358C49.7117 17.8873 50.161 19.8276 50.7274 21.8266C52.1429 19.9204 54.151 17.718 57.0667 15.2591C58.0791 14.4053 58.9907 13.8581 59.8014 13.5947C60.6179 13.3293 61.3852 13.3378 62.0217 13.6845C62.6557 14.0298 63.0271 14.6384 63.2032 15.2993C63.3786 15.9578 63.3768 16.716 63.2358 17.4816C62.8989 19.3109 61.7039 21.4368 59.6802 22.7126C59.8108 22.7048 59.943 22.6956 60.0764 22.6848C62.9141 22.4553 66.2935 21.5333 68.8627 18.8715C68.3696 16.4099 68.0846 11.7463 69.5396 6.96168C69.9363 5.65713 70.501 4.49128 71.1042 3.67171C71.4035 3.26515 71.737 2.90966 72.0944 2.67344C72.4436 2.44263 72.9279 2.25718 73.4406 2.43293C73.9506 2.60778 74.2432 3.05661 74.4072 3.51638C74.5749 3.98636 74.6592 4.59847 74.6723 5.34248ZM70.0721 17.3936C69.7638 14.9559 69.7443 11.2031 70.9076 7.37767C71.2684 6.19105 71.7693 5.1803 72.2558 4.51926C72.5014 4.18551 72.7188 3.97468 72.8828 3.86625C72.9222 3.84023 72.9529 3.82343 72.9759 3.81263C72.9977 3.84691 73.0275 3.90428 73.0605 3.99684C73.1542 4.25958 73.2308 4.69722 73.2426 5.36765C73.2661 6.70159 73.0319 8.78346 72.3752 11.8264C71.8764 14.1383 71.0661 15.9589 70.0721 17.3936ZM73.0304 3.79384C73.0303 3.79399 73.0286 3.79435 73.0252 3.79447C73.0287 3.79375 73.0304 3.79369 73.0304 3.79384ZM72.9425 3.76907C72.9406 3.76777 72.9398 3.76698 72.9398 3.76691C72.9398 3.76683 72.9408 3.76748 72.9425 3.76907ZM48.6636 13.7339C48.6586 13.7435 48.6515 13.7568 48.642 13.7726C48.6491 13.7607 48.6564 13.7477 48.6636 13.7339ZM47.3612 13.6438C47.3592 13.6373 47.359 13.6359 47.3606 13.6415C47.3608 13.6422 47.361 13.643 47.3612 13.6438ZM50.2628 25.1461C49.4977 26.5006 49.0802 27.5896 48.7594 28.4264C48.6537 28.7021 48.5585 28.9505 48.4648 29.1719C48.0833 30.0737 47.2583 32.5809 47.1624 34.8181C47.1141 35.9443 47.2565 36.8943 47.6322 37.5367C47.9701 38.1143 48.5393 38.5214 49.6182 38.5124C50.7011 38.5033 51.3307 38.0861 51.7264 37.4365C52.1565 36.7302 52.3552 35.6693 52.3314 34.3288C52.2842 31.6611 51.368 28.28 50.4013 25.5439C50.3546 25.4118 50.3084 25.2792 50.2628 25.1461ZM77.8376 18.9258C77.6062 19.6294 77.5483 20.2607 77.7227 20.7335C77.8762 21.1495 78.2735 21.6074 79.3726 21.8389C79.6623 21.8394 79.9442 21.8155 80.2177 21.7695C79.9984 21.6138 79.7997 21.4414 79.6212 21.2534C79.0495 20.6512 78.7203 19.925 78.5702 19.1661C78.4853 18.737 78.4569 18.2945 78.4745 17.8504C78.2625 18.2359 78.0501 18.594 77.8376 18.9258ZM82.0457 21.082C84.1218 19.8251 85.4032 17.2285 85.3637 15.1157C85.2976 14.1881 84.9837 13.7635 84.6797 13.5622C84.349 13.3435 83.8593 13.2745 83.2509 13.3959C82.6504 13.5159 82.0229 13.8068 81.5178 14.1741C80.9927 14.5561 80.7035 14.9434 80.6277 15.1989L80.6117 15.2528L80.5875 15.3035C80.0356 16.4592 79.7565 17.7945 79.9729 18.8887C80.0788 19.4246 80.3007 19.8923 80.6583 20.269C80.9723 20.5999 81.4173 20.8882 82.0457 21.082ZM107.915 21.6401C108.82 21.6065 109.678 21.4413 110.385 21.0188C111.108 20.5872 111.744 19.8453 112.086 18.5072C112.487 16.9427 112.524 15.8226 112.3 15.1111C112.194 14.7719 112.033 14.5429 111.836 14.387C111.637 14.2295 111.352 14.1091 110.937 14.0675C109.9 13.9636 109.342 13.9478 108.918 13.9977C108.514 14.0454 108.201 14.1558 107.637 14.3838C107.367 14.4926 106.957 14.9405 106.648 15.8579C106.356 16.7267 106.213 17.858 106.334 19.0456C106.486 20.5409 107.238 21.3101 107.915 21.6401ZM91.8393 15.4828C91.7754 15.6375 91.7051 15.797 91.6281 15.9602C91.6821 15.8099 91.7529 15.6491 91.8393 15.4828Z" fill="#B1EAFD"/>
<path fill-rule="evenodd" clip-rule="evenodd" d="M73.6117 4.49384C73.638 5.98878 73.378 8.19455 72.7124 11.2794C72.0506 14.3461 70.8606 16.6757 69.3639 18.4288C69.3969 18.5496 69.4291 18.6562 69.46 18.7481C69.5054 18.8829 69.5423 18.9698 69.5664 19.0189C70.2669 19.8357 71.1134 20.3238 72.0035 20.2562C72.9016 20.1879 74.1111 19.5344 75.4821 17.4462C75.7346 16.7412 76.0805 16.0995 76.3657 15.6335C76.5151 15.3895 76.6514 15.1878 76.7549 15.0437C76.8063 14.9723 76.8523 14.9112 76.8899 14.8643C76.9076 14.8422 76.9296 14.8155 76.9526 14.7902C76.9626 14.7794 76.9842 14.756 77.0126 14.7305C77.0253 14.7191 77.0556 14.6924 77.0979 14.6643C77.1189 14.6503 77.1574 14.6262 77.2092 14.6037C77.2517 14.5852 77.36 14.542 77.5057 14.5441L77.9336 14.5503C78.0197 14.3216 78.1139 14.0992 78.2146 13.8852C78.435 13.2149 79.0019 12.6161 79.6162 12.1692C80.2684 11.6948 81.0843 11.3101 81.9104 11.1451C82.7286 10.9818 83.6487 11.0187 84.4082 11.5212C85.1924 12.0402 85.647 12.9486 85.7308 14.1866L85.7319 14.2029L85.7323 14.2192C85.7791 16.3458 84.7669 18.817 82.9945 20.4874C83.1593 20.4862 83.3305 20.4809 83.5081 20.4712C86.2126 20.3227 88.1868 18.7283 89.483 16.9435C89.4144 16.8734 89.352 16.7966 89.2964 16.713C89.0703 16.373 89.0038 15.9899 89.0134 15.6405C89.0319 14.9658 89.3371 14.2516 89.6735 13.6793C90.0158 13.0971 90.4566 12.5501 90.8622 12.214C91.039 12.0674 91.3237 11.8618 91.6572 11.8239C91.8564 11.8012 92.119 11.8355 92.3431 12.0282C92.5519 12.2077 92.6281 12.4409 92.656 12.608C92.7004 12.8741 92.6737 13.1844 92.6219 13.4803C92.5674 13.7915 92.4739 14.1476 92.3448 14.5297C92.1884 14.9925 91.9754 15.5062 91.7045 16.0409C94.3098 15.7523 94.4955 15.7142 95.0287 15.6046C95.321 15.5446 95.7177 15.4631 96.6744 15.3071C97.2179 15.2185 97.7026 15.3643 98.0728 15.7151C98.405 16.03 98.5919 16.4603 98.7111 16.8559C98.9043 17.4977 98.989 18.316 99.0627 19.0273C99.0786 19.1812 99.094 19.3302 99.1099 19.4712C99.1574 19.8929 99.2085 20.2561 99.2806 20.5471C99.3394 20.7844 99.3983 20.9127 99.4364 20.9743C99.5629 20.9356 99.817 20.7999 100.23 20.4252C101.683 19.1083 102.567 18.3675 103.086 17.9775C103.332 17.7934 103.543 17.6505 103.713 17.5758C103.737 17.5654 103.767 17.5529 103.803 17.541C103.781 16.4516 103.942 15.417 104.233 14.5533C104.578 13.5288 105.171 12.561 106.04 12.2095C106.615 11.9772 107.081 11.8009 107.691 11.7291C108.281 11.6595 108.974 11.6914 110.019 11.7962C110.646 11.859 111.206 12.0561 111.662 12.4163C112.12 12.7781 112.426 13.267 112.604 13.8332C112.788 14.4175 112.84 15.0982 112.786 15.8542C112.864 15.9496 112.902 16.0403 112.913 16.0677C112.959 16.1836 112.973 16.2953 112.98 16.3608C112.986 16.4312 112.988 16.5058 112.988 16.5812C113.027 17.5337 112.877 18.3576 112.589 19.0631C112.607 19.1188 112.625 19.1584 112.641 19.1845C112.645 19.1915 112.649 19.1967 112.652 19.2004C112.758 19.2362 112.853 19.2697 112.941 19.3006C113.406 19.4649 113.657 19.5533 114.291 19.5066C115.138 19.4444 116.578 19.1308 119.549 18.277C124.337 16.9008 127.533 16.8 128.622 16.9521L128.425 18.3682C127.611 18.2546 124.632 18.3035 119.943 19.6512C116.991 20.4997 115.413 20.8578 114.396 20.9326C113.453 21.002 112.95 20.8227 112.44 20.6412C112.354 20.6103 112.267 20.5794 112.178 20.5496C112.039 20.5031 111.918 20.4392 111.812 20.3628C111.29 20.9936 110.66 21.4435 110.055 21.7558C109.163 22.2165 108.277 22.4041 107.76 22.4254C107.39 22.4406 106.985 22.3738 106.583 22.2276C106.486 22.2284 106.389 22.228 106.293 22.2267C105.067 22.2091 104.324 21.408 103.921 20.5994C103.736 20.2293 103.607 19.833 103.521 19.4538C103.02 19.8604 102.274 20.5021 101.191 21.4844C100.713 21.918 100.252 22.2339 99.8006 22.3572C99.5626 22.4222 99.3082 22.4388 99.0543 22.3729C98.7976 22.3063 98.5902 22.168 98.4301 21.9999C98.1331 21.6883 97.9841 21.2595 97.8928 20.891C97.7966 20.5027 97.7373 20.06 97.689 19.6312C97.6692 19.4554 97.6511 19.2822 97.6333 19.1128C97.5592 18.4072 97.492 17.7665 97.342 17.2681C97.2505 16.9643 97.1549 16.8152 97.0891 16.7529L97.0879 16.7517C97.0605 16.7257 97.031 16.6977 96.9044 16.7183C96.0068 16.8646 95.6152 16.9446 95.3175 17.0054C94.7425 17.1228 94.518 17.1687 91.6733 17.4829C91.3751 17.5158 91.0959 17.524 90.8374 17.5037C89.396 19.6042 87.0155 21.7106 83.5865 21.8988C82.6791 21.9487 81.8786 21.8979 81.178 21.7555C80.2943 22.1873 79.3022 22.4349 78.2267 22.4194L78.1619 22.4185L78.0983 22.4059C76.6147 22.1124 75.6973 21.4004 75.3207 20.3798C75.2814 20.2732 75.2489 20.1654 75.2225 20.0569C74.1967 21.0834 73.1519 21.6029 72.1118 21.6819C70.5578 21.8 69.2875 20.9147 68.4264 19.8852L68.3914 19.8434L68.3632 19.7967C68.3247 19.7332 68.2873 19.6608 68.2508 19.5805C65.4402 22.1485 61.9604 23.0326 59.1311 23.2613C57.5635 23.3881 56.1753 23.3158 55.1746 23.2087C54.6737 23.1551 54.2673 23.0926 53.9809 23.041C53.838 23.0153 53.7229 22.9919 53.6394 22.9732C53.5983 22.9641 53.5606 22.9551 53.5289 22.9467C53.5143 22.9428 53.493 22.9369 53.4703 22.9296C53.4601 22.9263 53.4384 22.9192 53.4125 22.9085C53.4 22.9034 53.3757 22.8931 53.3466 22.8776L53.3451 22.8768C53.3282 22.8679 53.2475 22.8252 53.1684 22.7438L51.7948 21.3302L53.7552 21.5346C57.9252 21.9693 60.308 18.8775 60.769 16.374C60.8825 15.758 60.8684 15.222 60.761 14.8188C60.6542 14.4181 60.4719 14.1976 60.2773 14.0915C60.0852 13.9869 59.7489 13.9219 59.1828 14.1059C58.6108 14.2917 57.8606 14.7169 56.9279 15.5035C53.6122 18.2998 51.5364 20.7257 50.1865 22.7147C50.3467 23.2213 50.5142 23.7246 50.6889 24.2189C51.6688 26.9924 52.649 30.5502 52.7005 33.4549C52.7261 34.9006 52.5248 36.2843 51.887 37.3316C51.2147 38.4355 50.1087 39.0807 48.5696 39.0936C47.0265 39.1065 45.9573 38.4697 45.3375 37.41C44.7555 36.4149 44.6208 35.1341 44.6733 33.9082C44.7791 31.4413 45.6671 28.7595 46.0874 27.7662C46.1662 27.5798 46.251 27.358 46.3486 27.1027C46.7448 26.0661 47.3512 24.4796 48.6208 22.4924C47.8841 20.0629 47.3171 17.6366 46.9247 15.8096C46.7828 15.149 46.6634 14.5653 46.5671 14.0881C46.0682 14.6344 45.4022 15.3492 44.6453 16.1329C43.0311 17.8045 40.9778 19.8168 39.2488 21.1657C36.2738 23.4868 32.5403 22.877 31.0338 22.2947L20.3114 18.3293L20.8074 16.9882L31.5402 20.9575L31.5454 20.9596C32.8076 21.4491 35.9487 21.9269 38.3693 20.0384C40.0147 18.7546 42.0103 16.8032 43.6168 15.1397C44.4166 14.3115 45.1133 13.5615 45.6132 13.0121C45.8633 12.7372 46.0631 12.5136 46.2013 12.3563C46.2707 12.2773 46.3229 12.2169 46.3574 12.176C46.3703 12.1608 46.3793 12.1499 46.3851 12.1428C46.4446 12.0588 46.5525 11.9443 46.7307 11.8811C47.0325 11.774 47.2806 11.896 47.3924 11.9775C47.4942 12.0516 47.5507 12.1344 47.5702 12.164C47.5958 12.2028 47.6127 12.2365 47.6219 12.2559C47.6518 12.3193 47.6691 12.38 47.6746 12.3992L47.675 12.4007C47.691 12.4567 47.7074 12.5277 47.723 12.5984C47.7556 12.7465 47.7999 12.9653 47.8542 13.2358C47.8635 13.2821 47.8732 13.3301 47.8831 13.3798C47.9907 13.916 48.1372 14.646 48.3226 15.5093C48.6511 17.0387 49.1004 18.979 49.6669 20.978C51.0824 19.0717 53.0905 16.8693 56.0061 14.4104C57.0185 13.5566 57.9301 13.0095 58.7408 12.746C59.5574 12.4807 60.3247 12.4892 60.9612 12.8359C61.5952 13.1812 61.9665 13.7898 62.1426 14.4507C62.3181 15.1092 62.3162 15.8673 62.1752 16.633C61.8383 18.4623 60.6433 20.5882 58.6197 21.864C58.7503 21.8562 58.8824 21.8469 59.0159 21.8361C61.8536 21.6067 65.233 20.6847 67.8022 18.0229C67.3091 15.5613 67.0241 10.8977 68.479 6.11305C68.8757 4.8085 69.4405 3.64265 70.0437 2.82307C70.3429 2.41651 70.6765 2.06103 71.0338 1.82481C71.383 1.59399 71.8674 1.40854 72.38 1.5843C72.89 1.75915 73.1826 2.20798 73.3466 2.66774C73.5143 3.13773 73.5986 3.74983 73.6117 4.49384ZM69.0116 16.545C68.7033 14.1073 68.6838 10.3544 69.847 6.52903C70.2078 5.34241 70.7087 4.33167 71.1953 3.67062C71.4409 3.33687 71.6582 3.12604 71.8223 3.01761C71.8616 2.9916 71.8924 2.97479 71.9154 2.96399C71.9371 2.99828 71.9669 3.05564 71.9999 3.14821C72.0937 3.41095 72.1703 3.84859 72.1821 4.51902C72.2056 5.85295 71.9713 7.93483 71.3147 10.9778C70.8158 13.2897 70.0056 15.1103 69.0116 16.545ZM71.9698 2.94521C71.9698 2.94536 71.968 2.94572 71.9647 2.94583C71.9682 2.94511 71.9699 2.94506 71.9698 2.94521ZM71.8819 2.92043C71.8801 2.91913 71.8792 2.91834 71.8793 2.91827C71.8793 2.9182 71.8802 2.91885 71.8819 2.92043ZM47.603 12.8853C47.598 12.8949 47.5909 12.9081 47.5814 12.9239C47.5885 12.912 47.5959 12.899 47.603 12.8853ZM46.3007 12.7952C46.2986 12.7887 46.2984 12.7872 46.3 12.7929C46.3002 12.7936 46.3004 12.7943 46.3007 12.7952ZM49.2023 24.2975C48.4372 25.652 48.0197 26.741 47.6988 27.5778C47.5931 27.8535 47.4979 28.1018 47.4042 28.3233C47.0227 29.2251 46.1977 31.7322 46.1018 33.9694C46.0536 35.0957 46.1959 36.0457 46.5717 36.688C46.9096 37.2657 47.4788 37.6728 48.5577 37.6638C49.6405 37.6547 50.2702 37.2375 50.6658 36.5879C51.0959 35.8815 51.2946 34.8207 51.2709 33.4802C51.2236 30.8124 50.3075 27.4314 49.3407 24.6953C49.294 24.5632 49.2479 24.4305 49.2023 24.2975ZM76.777 18.0772C76.5456 18.7808 76.4877 19.412 76.6622 19.8848C76.8157 20.3009 77.2129 20.7588 78.3121 20.9902C78.6018 20.9908 78.8836 20.9669 79.1571 20.9209C78.9379 20.7652 78.7391 20.5928 78.5607 20.4048C77.989 19.8025 77.6597 19.0763 77.5096 18.3175C77.4248 17.8884 77.3964 17.4459 77.4139 17.0018C77.2019 17.3873 76.9896 17.7453 76.777 18.0772ZM80.9851 20.2333C83.0612 18.9765 84.3427 16.3799 84.3031 14.2671C84.237 13.3395 83.9232 12.9148 83.6191 12.7136C83.2885 12.4948 82.7988 12.4258 82.1904 12.5473C81.5898 12.6672 80.9624 12.9581 80.4573 13.3255C79.9322 13.7075 79.643 14.0948 79.5672 14.3502L79.5512 14.4041L79.5269 14.4549C78.9751 15.6105 78.6959 16.9459 78.9123 18.0401C79.0183 18.576 79.2401 19.0437 79.5977 19.4204C79.9117 19.7512 80.3568 20.0396 80.9851 20.2333ZM106.855 20.7915C107.76 20.7579 108.617 20.5926 109.325 20.1702C110.047 19.7386 110.683 18.9967 111.026 17.6586C111.426 16.0941 111.464 14.9739 111.24 14.2624C111.133 13.9233 110.973 13.6943 110.775 13.5383C110.576 13.3808 110.291 13.2605 109.877 13.2189C108.84 13.115 108.282 13.0992 107.858 13.1491C107.453 13.1968 107.14 13.3072 106.576 13.5352C106.307 13.644 105.897 14.0918 105.588 15.0093C105.296 15.8781 105.153 17.0094 105.274 18.197C105.426 19.6922 106.177 20.4615 106.855 20.7915ZM90.7787 14.6342C90.7149 14.7888 90.6445 14.9484 90.5675 15.1115C90.6216 14.9612 90.6924 14.8005 90.7787 14.6342Z" fill="#006B8F"/>
<path d="M32.7773 9.49382C32.7741 8.94927 32.1621 8.5072 31.6065 8.8327L20.4991 15.3404L20.4991 21L32.5458 8.95331C32.6867 9.0942 32.7761 9.28659 32.7773 9.49382Z" fill="#006B8F"/>
<path d="M20.4991 21L26.1588 21L32.6692 9.88782C32.8672 9.54506 32.7741 9.18159 32.5458 8.95331L20.4991 21Z" fill="#B1EAFD"/>
<path d="M8.21973 32.5062C8.22301 33.0507 8.83497 33.4928 9.39054 33.1673L20.498 26.6596L20.498 21L8.45129 33.0467C8.31039 32.9058 8.22098 32.7134 8.21973 32.5062Z" fill="#006B8F"/>
<path d="M20.498 21H14.8383L8.32789 32.1122C8.1299 32.4549 8.22301 32.8184 8.4513 33.0467L20.498 21Z" fill="#B1EAFD"/>
<path d="M8.99187 8.72168C8.44732 8.72497 8.00525 9.33693 8.33074 9.89249L14.8384 20.9999L20.498 20.9999L8.45135 8.95324C8.59225 8.81234 8.78464 8.72294 8.99187 8.72168Z" fill="#006B8F"/>
<path d="M20.498 20.9999L20.498 15.3403L9.38587 8.82984C9.04311 8.63185 8.67963 8.72496 8.45135 8.95326L20.498 20.9999Z" fill="#B1EAFD"/>
<path d="M32.0042 33.2788C32.5488 33.2755 32.9908 32.6636 32.6653 32.108L26.1577 21.0005L20.498 21.0006L32.5447 33.0472C32.4038 33.1881 32.2115 33.2776 32.0042 33.2788Z" fill="#006B8F"/>
<path d="M20.498 21.0005L20.498 26.6602L31.6102 33.1706C31.953 33.3686 32.3165 33.2755 32.5447 33.0472L20.498 21.0005Z" fill="#B1EAFD"/>
<path d="M20.4991 21V1C20.1633 1 19.8276 1.20492 19.7412 1.61475L16.4971 16.998L20.4991 21Z" fill="#006B8F"/>
<path d="M21.2579 1.61475C21.1715 1.20492 20.8357 1 20.5 1V21L24.502 16.998L21.2579 1.61475Z" fill="#B1EAFD"/>
<path d="M20.5 41C20.8357 41 21.1715 40.7951 21.2579 40.3853L24.502 25.002L20.5 21V41Z" fill="#006B8F"/>
<path d="M20.4991 21L16.4971 25.002L19.7412 40.3853C19.7413 40.3859 19.7414 40.3865 19.7415 40.3871C19.8286 40.7957 20.1638 41 20.4991 41L20.4991 21Z" fill="#B1EAFD"/>
<path d="M20.5 20.9995L0.5 20.9995C0.5 21.3352 0.704916 21.6709 1.11475 21.7574L16.498 25.0015L20.5 20.9995Z" fill="#006B8F"/>
<path d="M1.11475 20.2421C0.704916 20.3285 0.5 20.6643 0.5 21L20.5 21L16.498 16.998L1.11475 20.2421Z" fill="#B1EAFD"/>
<path d="M40.5 21C40.5 20.6643 40.2951 20.3285 39.8853 20.2421L24.502 16.998L20.5 21L40.5 21Z" fill="#006B8F"/>
<path d="M20.5 20.9995L24.502 25.0015L39.8853 21.7574C39.8859 21.7573 39.8865 21.7571 39.8871 21.757C40.2957 21.67 40.5 21.3347 40.5 20.9995L20.5 20.9995Z" fill="#B1EAFD"/>
</svg>
