<svg width="24" height="24" viewBox="0 0 24 24" fill="none" xmlns="http://www.w3.org/2000/svg">
<path d="M12.0001 19.5083C12.3089 19.5083 12.7836 18.2502 12.7836 16.2162V9.11966C14.0567 8.77312 14.9833 7.60543 14.9833 6.22681C14.9833 4.56944 13.6574 3.22095 12.0001 3.22095C10.3352 3.22095 9.00928 4.56944 9.00928 6.22681C9.00928 7.5979 9.92836 8.76559 11.2015 9.11213V16.2162C11.2015 18.2352 11.6837 19.5083 12.0001 19.5083ZM11.1413 6.39254C10.5988 6.39254 10.1242 5.91793 10.1242 5.36046C10.1242 4.81051 10.5988 4.34344 11.1413 4.34344C11.7063 4.34344 12.1658 4.81051 12.1658 5.36046C12.1658 5.91793 11.7063 6.39254 11.1413 6.39254Z" fill="#00C2CE"/>
</svg>
