<svg width="32" height="32" viewBox="0 0 32 32" fill="none" xmlns="http://www.w3.org/2000/svg">
<path d="M25.8232 6.79506C25.8206 6.35941 25.331 6.00576 24.8866 6.26615L16.0006 11.4723L16.0006 16L25.638 6.36264C25.7507 6.47536 25.8222 6.62927 25.8232 6.79506Z" fill="#006B8F"/>
<path d="M16.0006 16L20.5284 16L25.7367 7.11025C25.8951 6.83605 25.8206 6.54527 25.638 6.36264L16.0006 16Z" fill="#B1EAFD"/>
<path d="M6.17773 25.2049C6.18036 25.6406 6.66993 25.9942 7.11438 25.7338L16.0004 20.5277L16.0003 16L6.36298 25.6374C6.25026 25.5246 6.17874 25.3707 6.17773 25.2049Z" fill="#006B8F"/>
<path d="M16.0004 16H11.4726L6.26426 24.8897C6.10587 25.164 6.18036 25.4547 6.36299 25.6374L16.0004 16Z" fill="#B1EAFD"/>
<path d="M6.79506 6.17725C6.35941 6.17988 6.00576 6.66944 6.26615 7.1139L11.4723 15.9999L16 15.9998L6.36264 6.3625C6.47536 6.24978 6.62927 6.17825 6.79506 6.17725Z" fill="#006B8F"/>
<path d="M16 15.9999L16 11.4721L7.11025 6.26378C6.83605 6.10538 6.54527 6.17987 6.36264 6.36251L16 15.9999Z" fill="#B1EAFD"/>
<path d="M25.2049 25.8228C25.6406 25.8201 25.9942 25.3306 25.7338 24.8861L20.5277 16.0001L16 16.0002L25.6374 25.6375C25.5246 25.7502 25.3707 25.8217 25.2049 25.8228Z" fill="#006B8F"/>
<path d="M16 16.0001L16 20.5279L24.8897 25.7362C25.164 25.8946 25.4547 25.8201 25.6374 25.6375L16 16.0001Z" fill="#B1EAFD"/>
<path d="M15.9995 16V0C15.7309 -6.39773e-08 15.4623 0.163933 15.3931 0.491799L12.7979 12.7984L15.9995 16Z" fill="#006B8F"/>
<path d="M16.6063 0.491799C16.5372 0.163933 16.2686 0 16 0V16L19.2016 12.7984L16.6063 0.491799Z" fill="#B1EAFD"/>
<path d="M16 32C16.2686 32 16.5372 31.8361 16.6063 31.5082L19.2016 19.2016L16 16V32Z" fill="#006B8F"/>
<path d="M15.9995 16L12.7979 19.2016L15.3931 31.5082C15.3932 31.5087 15.3933 31.5092 15.3934 31.5097C15.4631 31.8366 15.7313 32 15.9995 32L15.9995 16Z" fill="#B1EAFD"/>
<path d="M16 15.9998L-1.39946e-07 15.9998C-1.92183e-07 16.2684 0.163933 16.537 0.491799 16.6061L12.7984 19.2014L16 15.9998Z" fill="#006B8F"/>
<path d="M0.491799 15.3937C0.163933 15.4628 -1.17406e-08 15.7314 0 16L16 16L12.7984 12.7984L0.491799 15.3937Z" fill="#B1EAFD"/>
<path d="M32 16C32 15.7314 31.8361 15.4628 31.5082 15.3937L19.2016 12.7984L16 16L32 16Z" fill="#006B8F"/>
<path d="M16 15.9998L19.2016 19.2014L31.5082 16.6061C31.5087 16.606 31.5092 16.6059 31.5097 16.6058C31.8366 16.5362 32 16.268 32 15.9998L16 15.9998Z" fill="#B1EAFD"/>
</svg>
