<svg width="34" height="34" viewBox="0 0 34 34" fill="none" xmlns="http://www.w3.org/2000/svg">
<path fill-rule="evenodd" clip-rule="evenodd" d="M26.4413 6.65778C27.0264 6.31501 27.685 6.97363 27.3422 7.55868L21.8107 17L21.4334 17C21.6671 17 21.8833 17.1239 22.0015 17.3255L27.3422 26.4413C27.685 27.0263 27.0264 27.6849 26.4413 27.3422L17.3255 22.0014C17.1256 21.8843 17.0021 21.6707 17 21.4392L17 21.8107L7.55868 27.3422C6.97363 27.6849 6.31501 27.0263 6.65778 26.4413L12.1893 17L6.65778 7.55868C6.31501 6.97363 6.97363 6.31501 7.55867 6.65778L17 12.1893L26.4413 6.65778ZM17 17L17 17.6584C17 17.2966 17.2917 17.0031 17.6527 17L17 17Z" fill="#008A8A"/>
<path d="M17 17L6.76033 6.76029C6.95527 6.56535 7.26618 6.4864 7.5587 6.65778L17 12.1893V17L27.2397 6.76028C27.4332 6.95377 27.5124 7.26156 27.346 7.55219L21.8107 17L17 17Z" fill="#4AE6E6"/>
<path d="M12.1893 17L17 17L6.76032 27.2397C6.56626 27.0456 6.48712 26.7367 6.65542 26.4453L12.1893 17Z" fill="#4AE6E6"/>
<path d="M17.1928 17.1928C17.0737 17.312 17 17.4765 17 17.6583L17 21.4333C17 21.667 17.1239 21.8832 17.3255 22.0014L26.4413 27.3422C26.7338 27.5135 27.0447 27.4346 27.2397 27.2397L17.1928 17.1928Z" fill="#4AE6E6"/>
<path d="M13.5983 13.5983L16.3558 0.522536C16.5027 -0.174179 17.4973 -0.174179 17.6442 0.522536L20.4017 13.5983L33.4775 16.3557C34.1742 16.5027 34.1742 17.4973 33.4775 17.6442L20.4017 20.4017L17.6442 33.4774C17.4973 34.1741 16.5027 34.1741 16.3558 33.4774L13.5983 20.4017L0.522533 17.6442C-0.174182 17.4973 -0.174175 16.5027 0.52254 16.3558L13.5983 13.5983Z" fill="#008A8A"/>
<path d="M17 0C17.2854 0 17.5708 0.174179 17.6442 0.522536L20.4017 13.5983L17 17V0Z" fill="#4AE6E6"/>
<path d="M17 17H34C34 17.2851 33.8261 17.5702 33.4784 17.644L20.4017 20.4017L17 17Z" fill="#4AE6E6"/>
<path d="M17 17V33.9999C16.7151 33.9999 16.4301 33.8263 16.3561 33.4789L13.5983 20.4017L17 17Z" fill="#4AE6E6"/>
<path d="M13.5983 13.5983L17 17H0C2.23306e-05 16.7146 0.174203 16.4292 0.522539 16.3558L13.5983 13.5983Z" fill="#4AE6E6"/>
</svg>
