<svg width="24" height="24" viewBox="0 0 24 24" fill="none" xmlns="http://www.w3.org/2000/svg">
<path d="M11.9999 12.0954C12.1807 12.0954 12.3465 12.0351 12.5197 11.8618L14.9681 9.50385C15.0887 9.38332 15.1565 9.24772 15.1565 9.06691C15.1565 8.72791 14.8853 8.4793 14.5538 8.4793C14.3805 8.4793 14.2148 8.5471 14.0942 8.6827L13.0848 9.75246L12.6327 10.2949L12.7081 9.16485V3.51474C12.7081 3.1456 12.3917 2.82166 11.9999 2.82166C11.6157 2.82166 11.2993 3.1456 11.2993 3.51474V9.16485L11.3747 10.3024L10.9151 9.75246L9.91316 8.6827C9.79262 8.5471 9.61935 8.4793 9.44608 8.4793C9.11461 8.4793 8.8434 8.72791 8.8434 9.06691C8.8434 9.24772 8.9112 9.38332 9.03927 9.50385L11.4877 11.8618C11.6609 12.0351 11.8267 12.0954 11.9999 12.0954ZM5.55127 19.7042H18.4411C20.0758 19.7042 20.9271 18.8604 20.9271 17.2483V12.8261C20.9271 12.0276 20.8292 11.5982 20.4676 11.1311L17.9815 7.93689C17.0775 6.7692 16.505 6.17405 15.1263 6.17405H14.1018V7.40955H15.1941C15.7215 7.40955 16.2413 7.84649 16.5878 8.29096L19.1643 11.681C19.4204 12.02 19.3225 12.1632 18.9383 12.1632H14.2148C13.823 12.1632 13.6422 12.4419 13.6422 12.7357V12.7659C13.6422 13.5795 13.0094 14.4458 11.9999 14.4458C10.9829 14.4458 10.3501 13.5795 10.3501 12.7659V12.7357C10.3501 12.4419 10.1768 12.1632 9.77755 12.1632H5.06159C4.66985 12.1632 4.58698 11.9974 4.83559 11.681L7.41204 8.29096C7.75858 7.84649 8.27839 7.40955 8.80573 7.40955H9.89809V6.17405H8.87353C7.49491 6.17405 6.92236 6.76167 6.01835 7.93689L3.52476 11.1311C3.17069 11.6057 3.07275 12.0276 3.07275 12.8261V17.2483C3.07275 18.8604 3.92404 19.7042 5.55127 19.7042ZM5.6266 18.1975C4.93352 18.1975 4.55685 17.8359 4.55685 17.1127V13.4891H9.06941C9.31048 14.83 10.4782 15.8244 11.9999 15.8244C13.5217 15.8244 14.6894 14.83 14.9305 13.4891H19.443V17.1127C19.443 17.8359 19.0588 18.1975 18.3657 18.1975H5.6266Z" fill="#00C2CE"/>
</svg>
