<svg width="29" height="28" viewBox="0 0 29 28" fill="none" xmlns="http://www.w3.org/2000/svg">
<path d="M14.5 14.1113C14.7109 14.1113 14.9043 14.041 15.1064 13.8389L17.9629 11.0879C18.1035 10.9473 18.1826 10.7891 18.1826 10.5781C18.1826 10.1826 17.8662 9.89258 17.4795 9.89258C17.2773 9.89258 17.084 9.97168 16.9434 10.1299L15.7656 11.3779L15.2383 12.0107L15.3262 10.6924V4.10059C15.3262 3.66992 14.957 3.29199 14.5 3.29199C14.0518 3.29199 13.6826 3.66992 13.6826 4.10059V10.6924L13.7705 12.0195L13.2344 11.3779L12.0654 10.1299C11.9248 9.97168 11.7227 9.89258 11.5205 9.89258C11.1338 9.89258 10.8174 10.1826 10.8174 10.5781C10.8174 10.7891 10.8965 10.9473 11.0459 11.0879L13.9023 13.8389C14.1045 14.041 14.2979 14.1113 14.5 14.1113ZM6.97656 22.9883H22.0146C23.9219 22.9883 24.915 22.0039 24.915 20.123V14.9639C24.915 14.0322 24.8008 13.5312 24.3789 12.9863L21.4785 9.25977C20.4238 7.89746 19.7559 7.20312 18.1475 7.20312H16.9521V8.64453H18.2266C18.8418 8.64453 19.4482 9.1543 19.8525 9.67285L22.8584 13.6279C23.1572 14.0234 23.043 14.1904 22.5947 14.1904H17.084C16.627 14.1904 16.416 14.5156 16.416 14.8584V14.8936C16.416 15.8428 15.6777 16.8535 14.5 16.8535C13.3135 16.8535 12.5752 15.8428 12.5752 14.8936V14.8584C12.5752 14.5156 12.373 14.1904 11.9072 14.1904H6.40527C5.94824 14.1904 5.85156 13.9971 6.1416 13.6279L9.14746 9.67285C9.55176 9.1543 10.1582 8.64453 10.7734 8.64453H12.0479V7.20312H10.8525C9.24414 7.20312 8.57617 7.88867 7.52148 9.25977L4.6123 12.9863C4.19922 13.54 4.08496 14.0322 4.08496 14.9639V20.123C4.08496 22.0039 5.07812 22.9883 6.97656 22.9883ZM7.06445 21.2305C6.25586 21.2305 5.81641 20.8086 5.81641 19.9648V15.7373H11.0811C11.3623 17.3018 12.7246 18.4619 14.5 18.4619C16.2754 18.4619 17.6377 17.3018 17.9189 15.7373H23.1836V19.9648C23.1836 20.8086 22.7354 21.2305 21.9268 21.2305H7.06445Z" fill="#00ACE6"/>
</svg>
