<svg width="19" height="15" viewBox="0 0 19 15" fill="none" xmlns="http://www.w3.org/2000/svg">
<path d="M10.0977 14.3076C10.3525 14.3076 10.5811 14.2109 10.792 14.0088L16.5928 8.2168C16.7686 8.04102 16.874 7.82129 16.9004 7.58398V13.3848C16.9004 13.9121 17.3047 14.3076 17.8496 14.3076C18.3857 14.3076 18.79 13.9121 18.79 13.3848V1.63379C18.79 1.08887 18.3857 0.693359 17.8496 0.693359C17.3047 0.693359 16.9004 1.08887 16.9004 1.63379V7.41699C16.874 7.17969 16.7686 6.95996 16.5928 6.78418L10.792 0.992188C10.5811 0.790039 10.3525 0.693359 10.0977 0.693359C9.56152 0.693359 9.16602 1.08887 9.16602 1.61621C9.16602 1.88867 9.27148 2.12598 9.44727 2.30176L11.416 4.28809L14 6.6084L12.1104 6.53809H1.18555C0.605469 6.53809 0.209961 6.93359 0.209961 7.50488C0.209961 8.06738 0.605469 8.46289 1.18555 8.46289H12.1104L14.0088 8.39258L11.416 10.7129L9.44727 12.6992C9.27148 12.875 9.16602 13.1123 9.16602 13.3848C9.16602 13.9121 9.56152 14.3076 10.0977 14.3076Z" fill="#00ACE6"/>
</svg>
